<?xml version="1.0" encoding="UTF-8"?>
<!DOCTYPE svg PUBLIC "-//W3C//DTD SVG 1.1//EN" "http://www.w3.org/Graphics/SVG/1.1/DTD/svg11.dtd">
<!-- Creator: CorelDRAW X5 -->
<svg xmlns="http://www.w3.org/2000/svg" xml:space="preserve" width="2480px" height="3508px" style="shape-rendering:geometricPrecision; text-rendering:geometricPrecision; image-rendering:optimizeQuality; fill-rule:evenodd; clip-rule:evenodd"
viewBox="0 0 2480 3507.43"
 xmlns:xlink="http://www.w3.org/1999/xlink">
 <defs>
  <style type="text/css">
   <![CDATA[
    .fil0 {fill:#2B2BCC}
    .fil1 {fill:#351330}
   ]]>
  </style>
 </defs>
 <g id="Layer_x0020_1">
  <metadata id="CorelCorpID_0Corel-Layer"/>
  <g id="_284936040">
   <path id="_284937168" class="fil0" d="M1337.75 1330.5c174.254,0 315.585,105.62 315.585,235.907 0,84.7758 -59.8495,159.096 -149.661,200.682l0.0129905 0.0118095c4.72027,38.1766 28.0441,60.8509 69.9702,68.0229 -76.8375,28.1822 -130.594,15.0323 -161.272,-39.4474l-0.00944762 -0.0165333c-23.9261,4.34118 -53.953,6.65467 -74.6256,6.65467 -20.6726,0 -21.3056,0.153524 -36.3332,-1.48918 29.7659,-62.1701 -4.42857,-122.519 -49.9767,-154.658 -63.9049,-45.0888 -147.042,-51.5887 -221.178,-26.4415 -5.29657,-17.1344 -8.09779,-34.9822 -8.09779,-53.3188 0,-130.287 141.332,-235.907 315.586,-235.907z"/>
   <path id="_284937048" class="fil1" d="M1116.56 1620.09c-101.937,-2.73272 -179.664,71.3543 -179.664,131.122 0,59.768 39.9315,92.7248 91.0621,115.84l-0.00708571 0.00708571c-2.68785,21.2194 -15.5744,35.3837 -39.4438,39.3706 43.7437,15.6642 71.4193,2.30168 89.4701,-23.488l0.00590476 -0.00944762 38.577 -0.597562c29.5297,-0.45821 60.7718,-4.93284 87.877,-16.3987 71.039,-30.0505 115.404,-89.0001 76.567,-163.243 -29.5699,-56.5275 -83.5725,-80.4347 -164.444,-82.6029z"/>
  </g>
 </g>
</svg>
