<?xml version="1.0" encoding="utf-8"?>
<!-- Generator: Adobe Illustrator 19.0.0, SVG Export Plug-In . SVG Version: 6.00 Build 0)  -->
<svg version="1.1" id="Camada_1" xmlns="http://www.w3.org/2000/svg" xmlns:xlink="http://www.w3.org/1999/xlink" x="0px" y="0px"
	 viewBox="0 0 612 792" style="enable-background:new 0 0 612 792;" xml:space="preserve">
<style type="text/css">
	.st0{fill-rule:evenodd;clip-rule:evenodd;fill:#351330;}
	.st1{fill-rule:evenodd;clip-rule:evenodd;fill:#2B2BCC;}
	.st2{fill-rule:evenodd;clip-rule:evenodd;fill:#FFFFFF;stroke:#221F20;stroke-width:0.2003;stroke-miterlimit:10;}
	.st3{fill-rule:evenodd;clip-rule:evenodd;fill:#FFFFFF;stroke:#FFFFFF;stroke-width:0.5723;stroke-miterlimit:10;}
</style>
<g>
	<path class="st0" d="M430,389.9c-24.7-0.7-43.5,17.3-43.5,31.8c0,14.5,9.7,22.5,22,28c0,0,0.2,7.9-9.5,9.6
		c10.6,3.8,17.3,0.5,21.6-5.7l0,0l9.3-0.1c7.1-0.1,14.7-1.2,21.3-4c17.2-7.3,27.9-21.6,18.5-39.5C462.6,396.2,449.6,390.5,430,389.9
		L430,389.9z"/>
	<path class="st1" d="M483.5,319.8c42.2,0,76.3,25.6,76.3,57.2c0,20.5-14.5,38.5-36.2,48.6l0,0c1.1,9.2,6.8,14.7,16.9,16.5
		c-18.6,6.8-31.6,3.6-39-9.6l0,0c-5.8,1.1-13.1,1.6-18.1,1.6s-5.1,0.1-8.8-0.3c7.2-15.1-1.1-29.7-12.1-37.5
		c-15.5-10.9-35.6-12.5-53.5-6.4c-1.3-4.1-1.9-8.5-1.9-12.9C407.2,345.3,441.4,319.8,483.5,319.8L483.5,319.8z"/>
	<path class="st0" d="M295.5,443.7l-2.3-16.5c-8.2,7.9-37.9,15.9-35.6,1.3c47.6,6.1,56.5-52.9,0.3-46.7
		c-43.2,7.6-42.8,63.4-11.7,71.3C261.2,457,283.9,454.3,295.5,443.7L295.5,443.7z"/>
	<path class="st0" d="M118.1,365.1c-41.3-10.5-61.6,5.1-63.7,22.4c-3.3,27.1,36.8,32.2,30.6,40.6c-3.7,5-24.9-2.4-29.2-5.1
		c-0.3,15.9-0.4,24.2-0.4,25c24.7,14,68.7,9.4,68.7-24.6c0-28.4-34.5-23.9-32.1-33.9c1.5-6.1,24.2-0.4,26.1,0.5
		C118.3,378.5,118.3,369.9,118.1,365.1L118.1,365.1z"/>
	<path class="st0" d="M168.3,453.2c38.5-2.8,50.9-29.4,46.6-49.3c-4.3-19.9-25.3-33.2-53.7-9.3l-7.5-10.4h-18.4l0.1,85.4h33
		L168.3,453.2z"/>
	<polygon class="st0" points="309.5,452.9 339,452.9 339,430.2 353.1,452.4 387.4,452.4 362.7,414 383.4,383.5 351.1,383.5 
		338.2,404.4 338.2,359.5 309.5,359.5 	"/>
	<path class="st2" d="M176.6,406c-2.9,2.2-6,5.9-8.8,11.3c-0.1,4.8-0.1,10.1,0,16c7.3-3.3,25.3-15.5,19.8-26.9
		C185.9,402.8,180.4,403.1,176.6,406L176.6,406z"/>
	<path class="st3" d="M269.3,412.8c-1.9,1.9-5.5,3.1-10.6,3.4c0.2-8,0.2-12,0.2-12c2.9-4.7,6-6.8,9.1-6.2
		C273.1,399.4,271.8,410.3,269.3,412.8L269.3,412.8z"/>
</g>
</svg>
